# xmcd CD database file
#
# Track frame offsets:
#	150
#	13379
#	28972
#	42645
#	59169
#	76135
#	92488
#	107990
#	124438
#	143369
#	164947
#
# Disc length: 2502 seconds
#
# Revision: 1
# Processed by: cddbd v1.5.2PL0 Copyright (c) Steve Scherf et al.
# Submitted via: CDex 1.51
#
DISCID=a409c40b
DTITLE=Laura Caviani - Christmas Holiday Jazz  [CD1]
DYEAR=2007
DGENRE=Jazz
TTITLE0=Sleigh Ride
TTITLE1=Deck the Halls
TTITLE2=Rudolph the Red-Nosed Reindeer
TTITLE3=Greensleeves
TTITLE4=Christmas Time is Here
TTITLE5=Winter Wonderland
TTITLE6=Gesu Bambino
TTITLE7=God Rest Ye Merry Gentlemen
TTITLE8=O Come All Ye Faithful
TTITLE9=The First Noel
TTITLE10=Silent Night
EXTD=YEAR: 2007
EXTT0=
EXTT1=
EXTT2=
EXTT3=
EXTT4=
EXTT5=
EXTT6=
EXTT7=
EXTT8=
EXTT9=
EXTT10=
PLAYORDER=
